<?xml version="1.0" encoding="utf-8"?>
<!-- Generator: Adobe Illustrator 21.1.0, SVG Export Plug-In . SVG Version: 6.00 Build 0)  -->
<svg version="1.1" id="Capa_1" xmlns="http://www.w3.org/2000/svg" xmlns:xlink="http://www.w3.org/1999/xlink" x="0px" y="0px"
	 viewBox="0 0 99 99" style="enable-background:new 0 0 99 99;" xml:space="preserve">
<style type="text/css">
	.st0{fill:#2E9E6E;}
</style>
<g>
	<path class="st0" d="M80.5,8.5L86,54.2l-6.1,0.7L75,14H24l-4.8,40.9l-6.1-0.7l5.4-45.7C18.6,8.5,80.5,8.5,80.5,8.5z M87.9,59.8
		H11.1c-1.4,0-2.2,1.1-1.7,2.4l8.6,25.9c0.4,1.3,2,2.4,3.4,2.4h56.4c1.4,0,2.9-1.1,3.4-2.4l8.6-25.9C90.2,60.9,89.4,59.8,87.9,59.8z
		 M59.8,70H39.2v-5.1h20.5C59.8,64.8,59.8,70,59.8,70z"/>
</g>
</svg>
