<?xml version="1.0" encoding="utf-8"?>
<!-- Generator: Adobe Illustrator 21.1.0, SVG Export Plug-In . SVG Version: 6.00 Build 0)  -->
<svg version="1.1" id="Capa_1" xmlns="http://www.w3.org/2000/svg" xmlns:xlink="http://www.w3.org/1999/xlink" x="0px" y="0px"
	 viewBox="0 0 99 99" style="enable-background:new 0 0 99 99;" xml:space="preserve">
<path d="M84.3,3.5l6.1,51.3l-6.8,0.8L78.1,9.7H20.9l-5.4,45.9l-6.8-0.8l6.1-51.3H84.3z M92.6,61H6.4c-1.6,0-2.5,1.2-1.9,2.7
	l9.6,29.1c0.5,1.5,2.2,2.7,3.8,2.7h63.2c1.6,0,3.2-1.2,3.8-2.7l9.6-29C95.1,62.3,94.2,61,92.6,61z M61,72.5H38v-5.7H61
	C61,66.7,61,72.5,61,72.5z"/>
</svg>
